<svg width="1024" height="1024" viewBox="0 0 1024 1024" fill="none" xmlns="http://www.w3.org/2000/svg">
  <rect width="1024" height="1024" rx="220" fill="#0B1220"/>
  <rect x="212" y="152" width="600" height="720" rx="96" fill="#0F1A2D" stroke="#2563EB" stroke-width="18"/>
  <rect x="276" y="216" width="472" height="592" rx="56" fill="#111B2E" stroke="#1E40AF" stroke-width="8"/>
  <rect x="340" y="280" width="344" height="344" rx="28" fill="#EAF2FF"/>
  <rect x="372" y="312" width="80" height="80" rx="10" fill="#2563EB"/>
  <rect x="572" y="312" width="80" height="80" rx="10" fill="#2563EB"/>
  <rect x="372" y="512" width="80" height="80" rx="10" fill="#2563EB"/>
  <rect x="462" y="402" width="40" height="40" rx="6" fill="#2563EB"/>
  <rect x="522" y="462" width="40" height="40" rx="6" fill="#2563EB"/>
  <rect x="462" y="522" width="40" height="40" rx="6" fill="#2563EB"/>
  <rect x="300" y="660" width="424" height="6" rx="3" fill="#60A5FA"/>
  <rect x="300" y="656" width="424" height="14" rx="7" fill="#60A5FA" opacity="0.25"/>
</svg>
